<svg width="121" height="129" viewBox="0 0 121 129" fill="none" xmlns="http://www.w3.org/2000/svg">
<mask id="mask0" mask-type="alpha" maskUnits="userSpaceOnUse" x="5" y="17" width="111" height="111">
<path d="M60.5 127.875C90.8757 127.875 115.5 103.251 115.5 72.875C115.5 42.4994 90.8757 17.875 60.5 17.875C30.1244 17.875 5.50002 42.4994 5.50002 72.875C5.50002 103.251 30.1244 127.875 60.5 127.875Z" fill="white"/>
</mask>
<g mask="url(#mask0)">
<path d="M60.5 127.875C90.8757 127.875 115.5 103.251 115.5 72.875C115.5 42.4994 90.8757 17.875 60.5 17.875C30.1244 17.875 5.50002 42.4994 5.50002 72.875C5.50002 103.251 30.1244 127.875 60.5 127.875Z" fill="#E6E6E6"/>
<path d="M115.5 17.875H5.50002V127.875H115.5V17.875Z" fill="#65C9FF"/>
</g>
<mask id="mask1" mask-type="alpha" maskUnits="userSpaceOnUse" x="0" y="0" width="121" height="129">
<path d="M5.5 73.3333C5.5 103.709 30.1243 128.333 60.5 128.333C90.8757 128.333 115.5 103.709 115.5 73.3333H121V0H0V73.3333H5.5Z" fill="white"/>
</mask>
<g mask="url(#mask1)">
<mask id="mask2" mask-type="alpha" maskUnits="userSpaceOnUse" x="14" y="16" width="93" height="113">
<path d="M71.5 82.78V91.2083H73.3334C91.5588 91.2083 106.333 105.983 106.333 124.208V128.333H14.6667V124.208C14.6667 105.983 29.4413 91.2083 47.6667 91.2083H49.5V82.78C41.5996 79.0269 35.9206 71.3565 34.9732 62.2789C32.3035 61.9015 30.25 59.6072 30.25 56.8333V50.4166C30.25 47.6914 32.2321 45.4291 34.8333 44.9927V42.1667C34.8333 27.9913 46.3247 16.5 60.5 16.5C74.6753 16.5 86.1667 27.9913 86.1667 42.1667V44.9927C88.7679 45.4291 90.75 47.6914 90.75 50.4166V56.8333C90.75 59.6072 88.6965 61.9015 86.0268 62.2789C85.0794 71.3565 79.4005 79.0269 71.5 82.78Z" fill="white"/>
</mask>
<g mask="url(#mask2)">
<path d="M71.5 82.78V91.2083H73.3334C91.5588 91.2083 106.333 105.983 106.333 124.208V128.333H14.6667V124.208C14.6667 105.983 29.4413 91.2083 47.6667 91.2083H49.5V82.78C41.5996 79.0269 35.9206 71.3565 34.9732 62.2789C32.3035 61.9015 30.25 59.6072 30.25 56.8333V50.4166C30.25 47.6914 32.2321 45.4291 34.8333 44.9927V42.1667C34.8333 27.9913 46.3247 16.5 60.5 16.5C74.6753 16.5 86.1667 27.9913 86.1667 42.1667V44.9927C88.7679 45.4291 90.75 47.6914 90.75 50.4166V56.8333C90.75 59.6072 88.6965 61.9015 86.0268 62.2789C85.0794 71.3565 79.4005 79.0269 71.5 82.78Z" fill="#D0C6AC"/>
<path d="M121 16.5H0V128.333H121V16.5Z" fill="#B28B67"/>
<path fill-rule="evenodd" clip-rule="evenodd" d="M86.1666 52.7083V63.25C86.1666 77.4253 74.6753 88.9167 60.5 88.9167C46.3247 88.9167 34.8333 77.4253 34.8333 63.25V52.7083V59.5833C34.8333 73.7586 46.3247 85.25 60.5 85.25C74.6753 85.25 86.1666 73.7586 86.1666 59.5833V52.7083Z" fill="black" fill-opacity="0.1"/>
</g>
<mask id="mask3" mask-type="alpha" maskUnits="userSpaceOnUse" x="14" y="83" width="93" height="46">
<path fill-rule="evenodd" clip-rule="evenodd" d="M49.5 83.9075C41.2873 84.8265 34.9616 87.3363 34.8353 93.7956C22.9838 98.802 14.6667 110.534 14.6667 124.208V128.333H106.333V124.208C106.333 110.534 98.0162 98.802 86.1648 93.7956C86.0384 87.3363 79.7128 84.8265 71.5 83.9075V92.5833C71.5 98.6585 66.5751 103.583 60.5 103.583C54.4249 103.583 49.5 98.6585 49.5 92.5833V83.9075Z" fill="white"/>
</mask>
<g mask="url(#mask3)">
<path fill-rule="evenodd" clip-rule="evenodd" d="M49.5 83.9075C41.2873 84.8265 34.9616 87.3363 34.8353 93.7956C22.9838 98.802 14.6667 110.534 14.6667 124.208V128.333H106.333V124.208C106.333 110.534 98.0162 98.802 86.1648 93.7956C86.0384 87.3363 79.7128 84.8265 71.5 83.9075V92.5833C71.5 98.6585 66.5751 103.583 60.5 103.583C54.4249 103.583 49.5 98.6585 49.5 92.5833V83.9075Z" fill="#B7C1DB"/>
<path d="M121 77.9167H0V128.333H121V77.9167Z" fill="#3C4F5C"/>
<path fill-rule="evenodd" clip-rule="evenodd" d="M50.2739 97.2986L42.0952 97.4284C32.0626 97.5888 21.5484 104.989 18.6294 113.944L15.5834 123.292H105.417V113.382C105.417 104.021 97.2716 96.5516 87.239 96.7108L71.734 96.9569C68.9879 98.7227 65.0709 99.826 60.7246 99.826C56.6645 99.826 52.9802 98.8635 50.2739 97.2986Z" fill="white"/>
<path fill-rule="evenodd" clip-rule="evenodd" d="M71.3912 84.7917C78.2637 85.561 83.7881 87.4667 85.3341 91.9468H87.3383C97.38 91.9468 105.532 100.099 105.532 110.141V128.333H15.6891V110.141C15.6891 100.099 23.8413 91.9468 33.8831 91.9468H35.8872C37.4332 87.4667 42.9576 85.561 49.8301 84.7917V93.2949C49.8301 97.1936 53.6155 109.114 56.7188 111.008C57.9823 110.637 60.01 119.62 60.0549 120.365C60.8615 120.435 59.2445 120.449 60.0549 120.365C60.564 120.313 60.5441 117.807 61.2586 115.289C61.9743 112.771 63.4233 111.109 63.6685 111.008C67.5834 109.391 71.3912 97.7911 71.3912 93.2949V84.7917Z" fill="#3C4F5C"/>
<path fill-rule="evenodd" clip-rule="evenodd" d="M40.072 86.1667C33.1223 87.4889 29.7917 90.1229 29.7917 95.2601C29.7917 104.414 45.0482 111.833 60.5 111.833C75.9531 111.833 91.2083 104.414 91.2083 95.2601C91.2083 90.1229 87.6888 87.4889 80.739 86.1667C84.9339 87.7225 86.3599 90.3373 86.3599 94.6889C86.3599 104.157 73.5123 111.833 60.5 111.833C50.5605 111.833 40.718 107.355 36.6227 101.019C35.3576 99.061 34.6402 96.925 34.6402 94.6889C34.6402 90.3373 35.8772 87.7225 40.072 86.1667Z" fill="black" fill-opacity="0.16"/>
<path d="M59.354 123.256C59.2271 123.256 59.1238 123.349 59.1238 123.465V126.734C59.1238 126.85 59.2271 126.944 59.354 126.944H60.7781C60.9051 126.944 61.0096 126.85 61.0096 126.734V123.465C61.0096 123.349 60.9051 123.256 60.7781 123.256H60.6437V124.008C60.6437 124.296 60.3847 124.532 60.0661 124.532C59.7474 124.532 59.4885 124.296 59.4885 124.008V123.256H59.354ZM59.547 125.825C59.547 125.632 59.7188 125.475 59.9316 125.475H60.2005C60.4134 125.475 60.5864 125.632 60.5864 125.825V126.14C60.5864 126.333 60.4134 126.489 60.2005 126.489H59.9316C59.7188 126.489 59.547 126.333 59.547 126.14V125.825Z" fill="#E6E6E6"/>
<path d="M60.0661 124.392C60.3001 124.392 60.4893 124.219 60.4893 124.008V122.732C60.4893 122.519 60.3001 122.347 60.0661 122.347C59.832 122.347 59.6428 122.519 59.6428 122.732V124.008C59.6428 124.219 59.832 124.392 60.0661 124.392Z" fill="#E6E6E6"/>
<path d="M58.4977 113.762C58.4167 113.569 58.3358 113.387 58.2562 113.215L57.3836 113.55C57.4583 113.712 57.5354 113.885 57.6114 114.068L58.4977 113.762Z" fill="#E6E6E6"/>
<path d="M57.9923 112.675C57.8914 112.48 57.7943 112.303 57.7035 112.145L56.8632 112.542C56.9491 112.691 57.04 112.857 57.1346 113.04L57.9923 112.675Z" fill="#E6E6E6"/>
<path d="M58.698 117.86C58.7304 118.041 58.759 118.227 58.7864 118.417L59.725 118.306C59.6976 118.11 59.6665 117.917 59.6354 117.728L58.698 117.86Z" fill="#E6E6E6"/>
<path d="M59.9229 120.637C59.918 120.44 59.9092 120.245 59.898 120.053L58.952 120.098C58.962 120.282 58.9707 120.469 58.9769 120.659L59.9229 120.637Z" fill="#E6E6E6"/>
<path d="M58.8561 118.975C58.8773 119.159 58.8947 119.346 58.9109 119.535L59.8557 119.47C59.8395 119.272 59.8196 119.078 59.7984 118.888L58.8561 118.975Z" fill="#E6E6E6"/>
<path d="M58.9171 114.875C58.8512 114.68 58.7839 114.494 58.7167 114.314L57.8205 114.595C57.8852 114.765 57.9487 114.942 58.0122 115.126L58.9171 114.875Z" fill="#E6E6E6"/>
<path d="M56.2558 111.612C56.257 111.613 56.3803 111.766 56.5695 112.059L57.3861 111.623C57.1682 111.286 57.0238 111.108 57.0176 111.1L56.2558 111.612Z" fill="#E6E6E6"/>
<path d="M58.4752 116.755C58.5175 116.933 58.5574 117.118 58.596 117.306L59.5271 117.151C59.4872 116.955 59.4462 116.763 59.4013 116.576L58.4752 116.755Z" fill="#E6E6E6"/>
<path d="M59.2582 116.005C59.2072 115.809 59.1524 115.62 59.0976 115.437L58.184 115.665C58.2375 115.841 58.2885 116.021 58.3383 116.208L59.2582 116.005Z" fill="#E6E6E6"/>
<path d="M63.9461 111.612L63.5652 111.357L63.1843 111.1C63.1781 111.108 63.0349 111.286 62.8158 111.622L63.6324 112.059C63.8216 111.766 63.9449 111.613 63.9461 111.612Z" fill="#E6E6E6"/>
<path d="M60.2789 120.637L61.225 120.659C61.2312 120.469 61.2399 120.282 61.2499 120.098L60.3038 120.053C60.2926 120.245 60.2839 120.44 60.2789 120.637Z" fill="#E6E6E6"/>
<path d="M60.3462 119.47L61.2897 119.535C61.3071 119.346 61.3246 119.158 61.3457 118.975L60.4034 118.888C60.3822 119.078 60.3623 119.272 60.3462 119.47Z" fill="#E6E6E6"/>
<path d="M63.3386 112.542L62.4984 112.145C62.4088 112.303 62.3104 112.48 62.2096 112.675L63.0685 113.04C63.1619 112.857 63.2528 112.691 63.3386 112.542Z" fill="#E6E6E6"/>
<path d="M61.5038 117.86L60.5665 117.728C60.5341 117.917 60.5042 118.11 60.4768 118.306L61.4154 118.417C61.4428 118.227 61.4727 118.041 61.5038 117.86Z" fill="#E6E6E6"/>
<path d="M62.8183 113.549L61.9457 113.215C61.866 113.387 61.7851 113.569 61.7042 113.762L62.5905 114.068C62.6677 113.885 62.7436 113.712 62.8183 113.549Z" fill="#E6E6E6"/>
<path d="M60.8005 116.576C60.7557 116.763 60.7146 116.955 60.6748 117.151L61.6059 117.306C61.6445 117.118 61.6843 116.933 61.7267 116.755L60.8005 116.576Z" fill="#E6E6E6"/>
<path d="M61.7017 123.089C61.7017 122.579 61.5175 122.116 61.2187 121.782C61.2163 121.634 61.215 121.487 61.215 121.341V121.224L60.2677 121.218V121.26C60.2018 121.252 60.1345 121.246 60.0661 121.246C60.0213 121.246 59.9777 121.249 59.9341 121.253V121.218L58.9868 121.224V121.341C58.9868 121.463 58.9856 121.587 58.9831 121.71C58.6458 122.047 58.4304 122.539 58.4304 123.089C58.4304 123.632 58.6383 124.12 58.9694 124.457V123.465C58.9694 123.272 59.1424 123.115 59.354 123.115H59.4885V122.731C59.4885 122.442 59.7474 122.207 60.0661 122.207C60.3847 122.207 60.6437 122.442 60.6437 122.731V123.115H60.7781C60.9897 123.115 61.1627 123.272 61.1627 123.465V124.457C61.4939 124.12 61.7017 123.633 61.7017 123.089Z" fill="#E6E6E6"/>
<path d="M62.3814 114.593L61.4852 114.314C61.4167 114.494 61.3507 114.68 61.2847 114.873L62.1897 115.126C62.2532 114.942 62.3167 114.764 62.3814 114.593Z" fill="#E6E6E6"/>
<path d="M62.0179 115.665L61.1043 115.437C61.0495 115.62 60.9947 115.809 60.9424 116.005L61.8636 116.208C61.9134 116.021 61.9657 115.841 62.0179 115.665Z" fill="#E6E6E6"/>
</g>
<mask id="mask4" mask-type="alpha" maskUnits="userSpaceOnUse" x="51" y="67" width="19" height="10">
<path fill-rule="evenodd" clip-rule="evenodd" d="M51.8457 68.3503C52.3305 72.7007 56.0202 76.0833 60.5 76.0833C64.9936 76.0833 68.6922 72.6798 69.1587 68.31C69.1963 67.9583 68.8035 67.375 68.3113 67.375C61.4848 67.375 56.2549 67.375 52.7481 67.375C52.253 67.375 51.7972 67.9151 51.8457 68.3503Z" fill="white"/>
</mask>
<g mask="url(#mask4)">
<path fill-rule="evenodd" clip-rule="evenodd" d="M51.8457 68.3503C52.3305 72.7007 56.0202 76.0833 60.5 76.0833C64.9936 76.0833 68.6922 72.6798 69.1587 68.31C69.1963 67.9583 68.8035 67.375 68.3113 67.375C61.4848 67.375 56.2549 67.375 52.7481 67.375C52.253 67.375 51.7972 67.9151 51.8457 68.3503Z" fill="black" fill-opacity="0.7"/>
<path d="M65.5417 62.3333H55.9167C54.651 62.3333 53.625 63.3593 53.625 64.625V67.375C53.625 68.6406 54.651 69.6666 55.9167 69.6666H65.5417C66.8073 69.6666 67.8333 68.6406 67.8333 67.375V64.625C67.8333 63.3593 66.8073 62.3333 65.5417 62.3333Z" fill="white"/>
<path d="M58.2083 82.5C60.9928 82.5 63.25 80.2428 63.25 77.4584C63.25 74.6739 60.9928 72.4167 58.2083 72.4167C55.4239 72.4167 53.1666 74.6739 53.1666 77.4584C53.1666 80.2428 55.4239 82.5 58.2083 82.5Z" fill="#FF4F6D"/>
<path d="M62.7917 82.5C65.5761 82.5 67.8333 80.2428 67.8333 77.4584C67.8333 74.6739 65.5761 72.4167 62.7917 72.4167C60.0072 72.4167 57.75 74.6739 57.75 77.4584C57.75 80.2428 60.0072 82.5 62.7917 82.5Z" fill="#FF4F6D"/>
</g>
<path fill-rule="evenodd" clip-rule="evenodd" d="M55 59.5833C55 61.6084 57.4624 63.25 60.5 63.25C63.5376 63.25 66 61.6084 66 59.5833" fill="black" fill-opacity="0.16"/>
<path d="M48.5833 54.0833C50.1021 54.0833 51.3333 52.8521 51.3333 51.3333C51.3333 49.8145 50.1021 48.5833 48.5833 48.5833C47.0646 48.5833 45.8333 49.8145 45.8333 51.3333C45.8333 52.8521 47.0646 54.0833 48.5833 54.0833Z" fill="black" fill-opacity="0.6"/>
<path d="M72.4167 54.0833C73.9355 54.0833 75.1667 52.8521 75.1667 51.3333C75.1667 49.8145 73.9355 48.5833 72.4167 48.5833C70.8979 48.5833 69.6667 49.8145 69.6667 51.3333C69.6667 52.8521 70.8979 54.0833 72.4167 54.0833Z" fill="black" fill-opacity="0.6"/>
<path d="M42.1556 45.4336C42.8409 41.0688 48.6102 38.0914 52.7833 40.0129C53.2431 40.2247 53.7876 40.0235 53.9993 39.5637C54.211 39.1038 54.0099 38.5594 53.55 38.3476C48.2849 35.9233 41.2205 39.569 40.3444 45.1492C40.2659 45.6493 40.6077 46.1184 41.1078 46.197C41.6079 46.2755 42.077 45.9337 42.1556 45.4336Z" fill="black" fill-opacity="0.6"/>
<path d="M78.8445 45.4336C78.1592 41.0688 72.3899 38.0914 68.2168 40.0129C67.7569 40.2247 67.2125 40.0235 67.0008 39.5637C66.789 39.1038 66.9902 38.5594 67.45 38.3476C72.7152 35.9233 79.7795 39.569 80.6557 45.1492C80.7342 45.6493 80.3924 46.1184 79.8923 46.197C79.3921 46.2755 78.923 45.9337 78.8445 45.4336Z" fill="black" fill-opacity="0.6"/>
<mask id="mask5" mask-type="alpha" maskUnits="userSpaceOnUse" x="0" y="0" width="121" height="129">
<path d="M121 0H0V128.333H121V0Z" fill="white"/>
</mask>
<g mask="url(#mask5)">
<mask id="mask6" mask-type="alpha" maskUnits="userSpaceOnUse" x="34" y="44" width="53" height="42">
<path fill-rule="evenodd" clip-rule="evenodd" d="M68.488 77.994C67.336 79.0454 66.1087 79.5183 64.5576 79.1876C64.2907 79.1308 63.2025 77.1075 60.4999 77.1075C57.7974 77.1075 56.7093 79.1308 56.4422 79.1876C54.8911 79.5183 53.6639 79.0454 52.5118 77.994C50.3462 76.0172 48.5451 73.2913 49.6273 70.3172C50.1913 68.767 51.1086 67.0651 52.7774 66.5711C54.5593 66.0438 57.0611 66.5702 58.8568 66.2101C59.4385 66.0933 60.074 65.8858 60.4999 65.5417C60.9258 65.8858 61.5615 66.0933 62.1429 66.2101C63.9388 66.5702 66.4406 66.0438 68.2225 66.5711C69.8912 67.0651 70.8085 68.767 71.3727 70.3172C72.4549 73.2913 70.6538 76.0172 68.488 77.994ZM86.2038 44.9167C84.6407 48.7668 85.2444 53.56 84.9551 57.6015C84.7202 60.8865 84.0295 65.8102 81.1126 67.9317C79.6209 69.0166 76.9057 70.84 74.9567 70.3314C73.615 69.9813 73.4718 66.133 71.7087 64.6924C69.7087 63.0586 67.2114 62.3407 64.6934 62.4516C63.6068 62.4994 61.4094 62.4881 60.5 63.3236C59.5905 62.4881 57.3933 62.4994 56.3067 62.4516C53.7886 62.3407 51.2912 63.0586 49.2913 64.6924C47.5281 66.133 47.3851 69.9813 46.0434 70.3314C44.0943 70.84 41.3792 69.0166 39.8874 67.9317C36.9703 65.8102 36.2799 60.8865 36.0446 57.6015C35.7555 53.56 36.3592 48.7668 34.7961 44.9167C34.0357 44.9167 34.5373 52.3091 34.5373 52.3091V61.639C34.5518 68.6461 38.9286 79.1338 48.6328 83.1385C51.0061 84.1179 56.382 85.7084 60.5 85.7084C64.6179 85.7084 69.9938 84.2693 72.3671 83.2899C82.0714 79.2852 86.4482 68.6461 86.4628 61.639V52.3091C86.4628 52.3091 86.9642 44.9167 86.2038 44.9167Z" fill="white"/>
</mask>
<g mask="url(#mask6)">
<path fill-rule="evenodd" clip-rule="evenodd" d="M68.488 77.994C67.336 79.0454 66.1087 79.5183 64.5576 79.1876C64.2907 79.1308 63.2025 77.1075 60.4999 77.1075C57.7974 77.1075 56.7093 79.1308 56.4422 79.1876C54.8911 79.5183 53.6639 79.0454 52.5118 77.994C50.3462 76.0172 48.5451 73.2913 49.6273 70.3172C50.1913 68.767 51.1086 67.0651 52.7774 66.5711C54.5593 66.0438 57.0611 66.5702 58.8568 66.2101C59.4385 66.0933 60.074 65.8858 60.4999 65.5417C60.9258 65.8858 61.5615 66.0933 62.1429 66.2101C63.9388 66.5702 66.4406 66.0438 68.2225 66.5711C69.8912 67.0651 70.8085 68.767 71.3727 70.3172C72.4549 73.2913 70.6538 76.0172 68.488 77.994ZM86.2038 44.9167C84.6407 48.7668 85.2444 53.56 84.9551 57.6015C84.7202 60.8865 84.0295 65.8102 81.1126 67.9317C79.6209 69.0166 76.9057 70.84 74.9567 70.3314C73.615 69.9813 73.4718 66.133 71.7087 64.6924C69.7087 63.0586 67.2114 62.3407 64.6934 62.4516C63.6068 62.4994 61.4094 62.4881 60.5 63.3236C59.5905 62.4881 57.3933 62.4994 56.3067 62.4516C53.7886 62.3407 51.2912 63.0586 49.2913 64.6924C47.5281 66.133 47.3851 69.9813 46.0434 70.3314C44.0943 70.84 41.3792 69.0166 39.8874 67.9317C36.9703 65.8102 36.2799 60.8865 36.0446 57.6015C35.7555 53.56 36.3592 48.7668 34.7961 44.9167C34.0357 44.9167 34.5373 52.3091 34.5373 52.3091V61.639C34.5518 68.6461 38.9286 79.1338 48.6328 83.1385C51.0061 84.1179 56.382 85.7084 60.5 85.7084C64.6179 85.7084 69.9938 84.2693 72.3671 83.2899C82.0714 79.2852 86.4482 68.6461 86.4628 61.639V52.3091C86.4628 52.3091 86.9642 44.9167 86.2038 44.9167Z" fill="#331B0C"/>
<path d="M128.333 33H7.33331V144.833H128.333V33Z" fill="#2C1B18"/>
</g>
<g filter="url(#filter0_d)">
<path d="M46.2916 60.9583H45.0276C38.6442 60.9583 34.8333 57.4456 34.8333 51.5625C34.8333 46.8082 35.6661 42.1666 45.6179 42.1666H46.9654C56.9172 42.1666 57.75 46.8082 57.75 51.5625C57.75 57.0939 53.0389 60.9583 46.2916 60.9583ZM45.5516 44.9166C36.6666 44.9166 36.6666 48.0521 36.6666 52.0215C36.6666 55.2621 38.0949 59.125 44.9033 59.125H46.2916C51.9589 59.125 55.9166 56.204 55.9166 52.0215C55.9166 48.0521 55.9166 44.9166 47.0317 44.9166H45.5516Z" fill="#252C2F"/>
<path d="M74.7083 60.9583H73.4443C67.0609 60.9583 63.25 57.4456 63.25 51.5625C63.25 46.8082 64.0828 42.1666 74.0345 42.1666H75.3821C85.3339 42.1666 86.1667 46.8082 86.1667 51.5625C86.1667 57.0939 81.4556 60.9583 74.7083 60.9583ZM73.9683 44.9166C65.0833 44.9166 65.0833 48.0521 65.0833 52.0215C65.0833 55.2621 66.5131 59.125 73.32 59.125H74.7083C80.3756 59.125 84.3333 56.204 84.3333 52.0215C84.3333 48.0521 84.3333 44.9166 75.4484 44.9166H73.9683Z" fill="#252C2F"/>
<path d="M32.0625 44.8119C32.3794 44.5024 35.8461 42.1666 45.6042 42.1666C53.7861 42.1666 55.518 43.0158 58.1397 44.2987L58.3316 44.3934C58.5139 44.4578 59.446 44.7745 60.5362 44.8093C61.5296 44.7667 62.3792 44.4974 62.6275 44.4112C65.6198 42.9559 68.5488 42.1666 75.3958 42.1666C85.154 42.1666 88.6206 44.5024 88.9375 44.8119C89.6864 44.8119 90.2917 45.4032 90.2917 46.1346V47.4572C90.2917 48.1887 89.6864 48.7799 88.9375 48.7799C88.9375 48.7799 85.7743 48.7799 85.7743 50.1025C85.7743 51.4252 84.875 48.1887 84.875 47.4572V46.169C83.2235 45.5369 80.2672 44.3603 75.3958 44.3603C69.9685 44.3603 67.2655 45.3227 64.9469 46.2784L64.9728 46.3409L64.9717 47.2513L63.9555 49.7033L62.7002 49.207C62.5881 49.1627 62.3462 49.0831 62.0108 49.0003C61.0758 48.7697 60.1145 48.6995 59.2644 48.874C58.9525 48.938 58.6631 49.0341 58.3975 49.1639L57.1865 49.7557L55.9747 47.3899L56.0286 46.3383L56.0656 46.2489C54.066 45.3171 52.2222 44.3603 45.6042 44.3603C40.7331 44.3603 37.7768 45.5365 36.125 46.1685V47.4572C36.125 48.1887 34.7708 51.4252 34.7708 50.1025C34.7708 48.7799 32.0625 48.7799 32.0625 48.7799C31.315 48.7799 30.7083 48.1887 30.7083 47.4572V46.1346C30.7083 45.4032 31.315 44.8119 32.0625 44.8119Z" fill="#252C2F"/>
</g>
</g>
</g>
<defs>
<filter id="filter0_d" x="26.7083" y="40.1666" width="67.5833" height="26.7917" filterUnits="userSpaceOnUse" color-interpolation-filters="sRGB">
<feFlood flood-opacity="0" result="BackgroundImageFix"/>
<feColorMatrix in="SourceAlpha" type="matrix" values="0 0 0 0 0 0 0 0 0 0 0 0 0 0 0 0 0 0 127 0"/>
<feOffset dy="2"/>
<feGaussianBlur stdDeviation="2"/>
<feColorMatrix type="matrix" values="0 0 0 0 0 0 0 0 0 0 0 0 0 0 0 0 0 0 0.2 0"/>
<feBlend mode="normal" in2="BackgroundImageFix" result="effect1_dropShadow"/>
<feBlend mode="normal" in="SourceGraphic" in2="effect1_dropShadow" result="shape"/>
</filter>
</defs>
</svg>
